<mxfile host="app.diagrams.net" modified="2022-12-08T11:30:55.869Z" agent="5.0 (Macintosh; Intel Mac OS X 10_15_7) AppleWebKit/537.36 (KHTML, like Gecko) Chrome/108.0.0.0 Safari/537.36" etag="58d_NdFgfgrkYQjfS5Vo" version="20.6.0" type="github">
  <diagram id="ASmLAsQBJp6RxAvkR3ZK" name="Page-1">
    <mxGraphModel dx="946" dy="589" grid="1" gridSize="10" guides="1" tooltips="1" connect="1" arrows="1" fold="1" page="1" pageScale="1" pageWidth="827" pageHeight="1169" math="0" shadow="0">
      <root>
        <mxCell id="0" />
        <mxCell id="1" parent="0" />
        <mxCell id="73914hcnSvvW4cPeAc7Q-7" value="User" style="shape=umlLifeline;participant=umlActor;perimeter=lifelinePerimeter;whiteSpace=wrap;html=1;container=1;collapsible=0;recursiveResize=0;verticalAlign=top;spacingTop=36;outlineConnect=0;" parent="1" vertex="1">
          <mxGeometry x="70" y="40" width="20" height="680" as="geometry" />
        </mxCell>
        <mxCell id="73914hcnSvvW4cPeAc7Q-14" value="" style="html=1;points=[];perimeter=orthogonalPerimeter;" parent="73914hcnSvvW4cPeAc7Q-7" vertex="1">
          <mxGeometry x="5" y="80" width="10" height="600" as="geometry" />
        </mxCell>
        <mxCell id="uPt6AmJXj6Nix1qs7Ah5-2" value="&lt;font style=&quot;font-size: 9px;&quot;&gt;generate code verifier &amp;amp; challenge&lt;/font&gt;" style="edgeStyle=orthogonalEdgeStyle;html=1;align=left;spacingLeft=2;endArrow=block;rounded=0;entryX=0.9;entryY=0.351;entryDx=0;entryDy=0;entryPerimeter=0;" edge="1" target="73914hcnSvvW4cPeAc7Q-14" parent="73914hcnSvvW4cPeAc7Q-7">
          <mxGeometry relative="1" as="geometry">
            <mxPoint x="15" y="270" as="sourcePoint" />
            <Array as="points">
              <mxPoint x="45" y="270" />
              <mxPoint x="45" y="291" />
            </Array>
            <mxPoint x="20" y="290" as="targetPoint" />
          </mxGeometry>
        </mxCell>
        <mxCell id="73914hcnSvvW4cPeAc7Q-8" value="Portal" style="shape=umlLifeline;participant=umlBoundary;perimeter=lifelinePerimeter;whiteSpace=wrap;html=1;container=1;collapsible=0;recursiveResize=0;verticalAlign=top;spacingTop=36;outlineConnect=0;" parent="1" vertex="1">
          <mxGeometry x="140" y="40" width="50" height="550" as="geometry" />
        </mxCell>
        <mxCell id="73914hcnSvvW4cPeAc7Q-16" value="" style="html=1;points=[];perimeter=orthogonalPerimeter;" parent="73914hcnSvvW4cPeAc7Q-8" vertex="1">
          <mxGeometry x="20" y="90" width="10" height="40" as="geometry" />
        </mxCell>
        <mxCell id="73914hcnSvvW4cPeAc7Q-20" style="edgeStyle=orthogonalEdgeStyle;rounded=0;orthogonalLoop=1;jettySize=auto;html=1;entryX=1.1;entryY=0.8;entryDx=0;entryDy=0;entryPerimeter=0;" parent="73914hcnSvvW4cPeAc7Q-8" source="73914hcnSvvW4cPeAc7Q-16" target="73914hcnSvvW4cPeAc7Q-16" edge="1">
          <mxGeometry relative="1" as="geometry" />
        </mxCell>
        <mxCell id="73914hcnSvvW4cPeAc7Q-21" value="Generate launch URL" style="edgeLabel;html=1;align=center;verticalAlign=middle;resizable=0;points=[];fontSize=9;" parent="73914hcnSvvW4cPeAc7Q-20" vertex="1" connectable="0">
          <mxGeometry x="0.3276" y="-2" relative="1" as="geometry">
            <mxPoint y="8" as="offset" />
          </mxGeometry>
        </mxCell>
        <mxCell id="73914hcnSvvW4cPeAc7Q-9" value="Module" style="shape=umlLifeline;participant=umlBoundary;perimeter=lifelinePerimeter;whiteSpace=wrap;html=1;container=1;collapsible=0;recursiveResize=0;verticalAlign=top;spacingTop=36;outlineConnect=0;" parent="1" vertex="1">
          <mxGeometry x="230" y="40" width="50" height="680" as="geometry" />
        </mxCell>
        <mxCell id="73914hcnSvvW4cPeAc7Q-23" value="" style="html=1;points=[];perimeter=orthogonalPerimeter;fontSize=9;" parent="73914hcnSvvW4cPeAc7Q-9" vertex="1">
          <mxGeometry x="20" y="140" width="10" height="90" as="geometry" />
        </mxCell>
        <mxCell id="73914hcnSvvW4cPeAc7Q-40" value="" style="html=1;points=[];perimeter=orthogonalPerimeter;fontSize=9;" parent="73914hcnSvvW4cPeAc7Q-9" vertex="1">
          <mxGeometry x="20" y="530" width="10" height="150" as="geometry" />
        </mxCell>
        <mxCell id="73914hcnSvvW4cPeAc7Q-11" value="Authz Service" style="shape=umlLifeline;participant=umlControl;perimeter=lifelinePerimeter;whiteSpace=wrap;html=1;container=1;collapsible=0;recursiveResize=0;verticalAlign=top;spacingTop=36;outlineConnect=0;" parent="1" vertex="1">
          <mxGeometry x="320" y="40" width="40" height="680" as="geometry" />
        </mxCell>
        <mxCell id="73914hcnSvvW4cPeAc7Q-31" value="" style="html=1;points=[];perimeter=orthogonalPerimeter;fontSize=9;" parent="73914hcnSvvW4cPeAc7Q-11" vertex="1">
          <mxGeometry x="15" y="350" width="10" height="150" as="geometry" />
        </mxCell>
        <mxCell id="73914hcnSvvW4cPeAc7Q-42" value="" style="html=1;points=[];perimeter=orthogonalPerimeter;fontSize=9;" parent="73914hcnSvvW4cPeAc7Q-11" vertex="1">
          <mxGeometry x="15" y="550" width="10" height="130" as="geometry" />
        </mxCell>
        <mxCell id="73914hcnSvvW4cPeAc7Q-52" value="validate" style="edgeStyle=orthogonalEdgeStyle;html=1;align=left;spacingLeft=2;endArrow=block;rounded=0;fontSize=9;strokeColor=#030303;strokeWidth=1;exitX=1.1;exitY=0.721;exitDx=0;exitDy=0;exitPerimeter=0;entryX=1.067;entryY=0.867;entryDx=0;entryDy=0;entryPerimeter=0;" parent="73914hcnSvvW4cPeAc7Q-11" source="73914hcnSvvW4cPeAc7Q-31" target="73914hcnSvvW4cPeAc7Q-31" edge="1">
          <mxGeometry relative="1" as="geometry">
            <mxPoint x="205" y="460" as="sourcePoint" />
            <Array as="points">
              <mxPoint x="80" y="458" />
              <mxPoint x="80" y="480" />
            </Array>
            <mxPoint x="30" y="480" as="targetPoint" />
          </mxGeometry>
        </mxCell>
        <mxCell id="73914hcnSvvW4cPeAc7Q-12" value="SSO IdP" style="shape=umlLifeline;participant=umlControl;perimeter=lifelinePerimeter;whiteSpace=wrap;html=1;container=1;collapsible=0;recursiveResize=0;verticalAlign=top;spacingTop=36;outlineConnect=0;" parent="1" vertex="1">
          <mxGeometry x="400" y="40" width="40" height="550" as="geometry" />
        </mxCell>
        <mxCell id="73914hcnSvvW4cPeAc7Q-33" value="" style="html=1;points=[];perimeter=orthogonalPerimeter;fontSize=9;" parent="73914hcnSvvW4cPeAc7Q-12" vertex="1">
          <mxGeometry x="14" y="370" width="10" height="50" as="geometry" />
        </mxCell>
        <mxCell id="73914hcnSvvW4cPeAc7Q-13" value="FHIR Service" style="shape=umlLifeline;participant=umlEntity;perimeter=lifelinePerimeter;whiteSpace=wrap;html=1;container=1;collapsible=0;recursiveResize=0;verticalAlign=top;spacingTop=36;outlineConnect=0;" parent="1" vertex="1">
          <mxGeometry x="480" y="40" width="40" height="550" as="geometry" />
        </mxCell>
        <mxCell id="73914hcnSvvW4cPeAc7Q-28" value="" style="html=1;points=[];perimeter=orthogonalPerimeter;fontSize=9;" parent="73914hcnSvvW4cPeAc7Q-13" vertex="1">
          <mxGeometry x="15" y="170" width="10" height="40" as="geometry" />
        </mxCell>
        <mxCell id="73914hcnSvvW4cPeAc7Q-15" value="select task" style="html=1;verticalAlign=bottom;startArrow=oval;startFill=1;endArrow=block;startSize=8;rounded=0;fontSize=9;" parent="1" edge="1">
          <mxGeometry width="60" relative="1" as="geometry">
            <mxPoint x="90" y="140" as="sourcePoint" />
            <mxPoint x="160" y="139" as="targetPoint" />
          </mxGeometry>
        </mxCell>
        <mxCell id="73914hcnSvvW4cPeAc7Q-17" value="redirect FORM" style="html=1;verticalAlign=bottom;endArrow=open;dashed=1;endSize=8;rounded=0;exitX=-0.2;exitY=0.975;exitDx=0;exitDy=0;exitPerimeter=0;fontSize=9;" parent="1" source="73914hcnSvvW4cPeAc7Q-16" target="73914hcnSvvW4cPeAc7Q-7" edge="1">
          <mxGeometry relative="1" as="geometry">
            <mxPoint x="450" y="320" as="sourcePoint" />
            <mxPoint x="90" y="170" as="targetPoint" />
          </mxGeometry>
        </mxCell>
        <mxCell id="73914hcnSvvW4cPeAc7Q-22" value="&lt;span style=&quot;text-align: start;&quot; id=&quot;docs-internal-guid-1505f8b8-7fff-2bb9-398f-21b4f6429415&quot;&gt;&lt;p style=&quot;line-height: 1.2; text-align: center; margin-top: 0pt; margin-bottom: 0pt;&quot; dir=&quot;ltr&quot;&gt;&lt;span style=&quot;font-family: Asap, sans-serif; font-variant-ligatures: normal; font-variant-east-asian: normal; font-variant-position: normal; vertical-align: baseline;&quot;&gt;&lt;font style=&quot;font-size: 8px;&quot;&gt;iss={fhir url}&amp;amp;launch={hti token}&amp;amp;state={state}&lt;/font&gt;&lt;/span&gt;&lt;/p&gt;&lt;/span&gt;" style="html=1;verticalAlign=bottom;endArrow=block;rounded=0;exitX=1.2;exitY=0.117;exitDx=0;exitDy=0;exitPerimeter=0;" parent="1" source="73914hcnSvvW4cPeAc7Q-14" edge="1">
          <mxGeometry width="80" relative="1" as="geometry">
            <mxPoint x="90" y="190" as="sourcePoint" />
            <mxPoint x="250" y="190" as="targetPoint" />
          </mxGeometry>
        </mxCell>
        <mxCell id="73914hcnSvvW4cPeAc7Q-29" value="&lt;span style=&quot;text-align: start;&quot; id=&quot;docs-internal-guid-a28b069d-7fff-43a8-c809-6137400d5dd9&quot;&gt;&lt;span style=&quot;font-family: Roboto, sans-serif; font-variant-ligatures: normal; font-variant-east-asian: normal; font-variant-position: normal; vertical-align: baseline;&quot;&gt;&lt;font style=&quot;font-size: 9px;&quot;&gt;/conformance&lt;/font&gt;&lt;/span&gt;&lt;/span&gt;" style="html=1;verticalAlign=bottom;endArrow=block;entryX=0;entryY=0;rounded=0;fontSize=9;" parent="1" target="73914hcnSvvW4cPeAc7Q-28" edge="1">
          <mxGeometry relative="1" as="geometry">
            <mxPoint x="260" y="210" as="sourcePoint" />
          </mxGeometry>
        </mxCell>
        <mxCell id="73914hcnSvvW4cPeAc7Q-30" value="conformance statement (/authorize &amp;amp; /token)" style="html=1;verticalAlign=bottom;endArrow=open;dashed=1;endSize=8;rounded=0;fontSize=9;entryX=1.3;entryY=0.62;entryDx=0;entryDy=0;entryPerimeter=0;" parent="1" target="73914hcnSvvW4cPeAc7Q-23" edge="1">
          <mxGeometry relative="1" as="geometry">
            <mxPoint x="425" y="286" as="targetPoint" />
            <mxPoint x="500" y="236" as="sourcePoint" />
          </mxGeometry>
        </mxCell>
        <mxCell id="73914hcnSvvW4cPeAc7Q-32" value="&lt;span style=&quot;&quot; id=&quot;docs-internal-guid-549b7491-7fff-cfe8-88d7-1d511a69c36a&quot;&gt;&lt;span style=&quot;font-family: Roboto, sans-serif; font-variant-ligatures: normal; font-variant-east-asian: normal; font-variant-position: normal; vertical-align: baseline;&quot;&gt;&lt;font style=&quot;font-size: 9px;&quot;&gt;&lt;span style=&quot;font-family: Helvetica; text-align: center;&quot;&gt;/authorize?&lt;/span&gt;scope={scope}&amp;amp;state={state}&amp;amp;launch={hti token}&lt;br&gt;&lt;div style=&quot;text-align: left;&quot;&gt;&amp;amp;aud={fhir url}&amp;amp;code_challenge={code_challenge}&lt;/div&gt;&lt;div style=&quot;text-align: left;&quot;&gt;&amp;amp;code_challenge_method=S256&lt;/div&gt;&lt;/font&gt;&lt;/span&gt;&lt;/span&gt;" style="html=1;verticalAlign=bottom;startArrow=oval;endArrow=block;startSize=8;rounded=0;fontSize=9;" parent="1" target="73914hcnSvvW4cPeAc7Q-31" edge="1">
          <mxGeometry relative="1" as="geometry">
            <mxPoint x="85" y="390" as="sourcePoint" />
            <Array as="points">
              <mxPoint x="120" y="390" />
            </Array>
          </mxGeometry>
        </mxCell>
        <mxCell id="73914hcnSvvW4cPeAc7Q-34" value="SSO" style="html=1;verticalAlign=bottom;endArrow=block;entryX=0;entryY=0;rounded=0;fontSize=9;exitX=0.9;exitY=0.14;exitDx=0;exitDy=0;exitPerimeter=0;" parent="1" target="73914hcnSvvW4cPeAc7Q-33" edge="1" source="73914hcnSvvW4cPeAc7Q-31">
          <mxGeometry x="-0.2875" y="4" relative="1" as="geometry">
            <mxPoint x="360" y="410" as="sourcePoint" />
            <mxPoint as="offset" />
          </mxGeometry>
        </mxCell>
        <mxCell id="73914hcnSvvW4cPeAc7Q-36" value="SSO Login" style="html=1;verticalAlign=bottom;endArrow=block;rounded=0;fontSize=9;startArrow=classic;startFill=1;strokeWidth=2;dashed=1;strokeColor=#7D7D7D;" parent="1" edge="1">
          <mxGeometry width="80" relative="1" as="geometry">
            <mxPoint x="410" y="430" as="sourcePoint" />
            <mxPoint x="90" y="430" as="targetPoint" />
          </mxGeometry>
        </mxCell>
        <mxCell id="73914hcnSvvW4cPeAc7Q-35" value="return" style="html=1;verticalAlign=bottom;endArrow=open;dashed=1;endSize=8;rounded=0;fontSize=9;entryX=1.2;entryY=0.414;entryDx=0;entryDy=0;entryPerimeter=0;" parent="1" source="73914hcnSvvW4cPeAc7Q-33" target="73914hcnSvvW4cPeAc7Q-31" edge="1">
          <mxGeometry relative="1" as="geometry">
            <mxPoint x="350" y="450" as="targetPoint" />
            <mxPoint x="410" y="450" as="sourcePoint" />
          </mxGeometry>
        </mxCell>
        <mxCell id="73914hcnSvvW4cPeAc7Q-37" value="redirec:/authorize" style="html=1;verticalAlign=bottom;endArrow=open;dashed=1;endSize=8;rounded=0;exitX=0.1;exitY=0.878;exitDx=0;exitDy=0;exitPerimeter=0;fontSize=9;" parent="1" source="73914hcnSvvW4cPeAc7Q-23" target="73914hcnSvvW4cPeAc7Q-7" edge="1">
          <mxGeometry relative="1" as="geometry">
            <mxPoint x="238.5" y="260" as="sourcePoint" />
            <mxPoint x="90" y="260" as="targetPoint" />
          </mxGeometry>
        </mxCell>
        <mxCell id="73914hcnSvvW4cPeAc7Q-39" value="redirect:{redirect_uri}?code={code}&amp;nbsp;" style="html=1;verticalAlign=bottom;endArrow=open;dashed=1;endSize=8;rounded=0;fontSize=9;strokeWidth=1;exitX=0;exitY=0.927;exitDx=0;exitDy=0;exitPerimeter=0;" parent="1" source="73914hcnSvvW4cPeAc7Q-31" edge="1">
          <mxGeometry relative="1" as="geometry">
            <mxPoint x="390" y="440" as="sourcePoint" />
            <mxPoint x="90" y="530" as="targetPoint" />
          </mxGeometry>
        </mxCell>
        <mxCell id="73914hcnSvvW4cPeAc7Q-41" value="&lt;div style=&quot;&quot;&gt;{redirect_uri}?code={code}&amp;amp;grant_type=authorization_code&lt;/div&gt;&lt;div style=&quot;&quot;&gt;&amp;amp;redirect_uri={redirect_uri}&amp;amp;code_verifier={code_verifier}&lt;/div&gt;" style="html=1;verticalAlign=bottom;startArrow=oval;endArrow=block;startSize=8;rounded=0;fontSize=9;strokeWidth=1;align=left;exitX=1;exitY=0.768;exitDx=0;exitDy=0;exitPerimeter=0;" parent="1" target="73914hcnSvvW4cPeAc7Q-40" edge="1" source="73914hcnSvvW4cPeAc7Q-14">
          <mxGeometry x="-1" relative="1" as="geometry">
            <mxPoint x="90" y="580" as="sourcePoint" />
            <mxPoint as="offset" />
          </mxGeometry>
        </mxCell>
        <mxCell id="73914hcnSvvW4cPeAc7Q-43" value="&lt;span style=&quot;&quot; id=&quot;docs-internal-guid-0ab07bfd-7fff-b5ed-49af-7fb6f616343c&quot;&gt;&lt;p style=&quot;line-height: 1.2; margin-top: 0pt; margin-bottom: 0pt;&quot; dir=&quot;ltr&quot;&gt;&lt;span style=&quot;font-family: Roboto, sans-serif; font-variant-ligatures: normal; font-variant-east-asian: normal; font-variant-position: normal; vertical-align: baseline;&quot;&gt;&lt;font style=&quot;font-size: 9px;&quot;&gt;/token code={code} + auth headers&lt;/font&gt;&lt;/span&gt;&lt;/p&gt;&lt;/span&gt;" style="html=1;verticalAlign=bottom;startArrow=oval;endArrow=block;startSize=8;rounded=0;fontSize=9;strokeWidth=1;exitX=1;exitY=0.57;exitDx=0;exitDy=0;exitPerimeter=0;align=left;" parent="1" source="73914hcnSvvW4cPeAc7Q-40" target="73914hcnSvvW4cPeAc7Q-42" edge="1">
          <mxGeometry x="-1" y="-2" relative="1" as="geometry">
            <mxPoint x="275" y="540" as="sourcePoint" />
            <Array as="points">
              <mxPoint x="290" y="655" />
            </Array>
            <mxPoint x="-2" y="-2" as="offset" />
          </mxGeometry>
        </mxCell>
        <mxCell id="73914hcnSvvW4cPeAc7Q-55" value="id_token, access_token, context" style="html=1;verticalAlign=bottom;endArrow=open;dashed=1;endSize=8;rounded=0;fontSize=9;strokeColor=#030303;strokeWidth=1;exitX=0.1;exitY=0.72;exitDx=0;exitDy=0;exitPerimeter=0;entryX=1;entryY=0.757;entryDx=0;entryDy=0;entryPerimeter=0;align=left;" parent="1" source="73914hcnSvvW4cPeAc7Q-42" target="73914hcnSvvW4cPeAc7Q-40" edge="1">
          <mxGeometry x="1" relative="1" as="geometry">
            <mxPoint x="380" y="540" as="sourcePoint" />
            <mxPoint x="300" y="540" as="targetPoint" />
            <mxPoint as="offset" />
          </mxGeometry>
        </mxCell>
        <mxCell id="73914hcnSvvW4cPeAc7Q-56" value="return" style="html=1;verticalAlign=bottom;endArrow=open;dashed=1;endSize=8;rounded=0;fontSize=9;strokeColor=#030303;strokeWidth=1;entryX=0.9;entryY=0.978;entryDx=0;entryDy=0;entryPerimeter=0;align=left;" parent="1" target="73914hcnSvvW4cPeAc7Q-14" edge="1">
          <mxGeometry x="0.9273" relative="1" as="geometry">
            <mxPoint x="250" y="707" as="sourcePoint" />
            <mxPoint x="79.5" y="672.3" as="targetPoint" />
            <mxPoint as="offset" />
          </mxGeometry>
        </mxCell>
        <mxCell id="ZieVGQnrHWk_WUKfghvS-3" value="fetch" style="html=1;verticalAlign=bottom;startArrow=oval;startFill=1;endArrow=block;startSize=8;rounded=0;fontSize=9;" parent="1" edge="1">
          <mxGeometry width="60" relative="1" as="geometry">
            <mxPoint x="350" y="480" as="sourcePoint" />
            <mxPoint x="499.5" y="480" as="targetPoint" />
            <Array as="points">
              <mxPoint x="470" y="480" />
            </Array>
          </mxGeometry>
        </mxCell>
        <mxCell id="uPt6AmJXj6Nix1qs7Ah5-5" value="validate code verifier &amp;amp; challenge" style="edgeStyle=orthogonalEdgeStyle;html=1;align=left;spacingLeft=2;endArrow=block;rounded=0;entryX=0.9;entryY=0.33;fontSize=9;entryDx=0;entryDy=0;entryPerimeter=0;" edge="1" target="73914hcnSvvW4cPeAc7Q-40" parent="1">
          <mxGeometry relative="1" as="geometry">
            <mxPoint x="260" y="600" as="sourcePoint" />
            <Array as="points">
              <mxPoint x="290" y="600" />
              <mxPoint x="290" y="620" />
            </Array>
            <mxPoint x="265" y="620" as="targetPoint" />
          </mxGeometry>
        </mxCell>
      </root>
    </mxGraphModel>
  </diagram>
</mxfile>
